<?xml version="1.0" encoding="UTF-8" standalone="no"?>
<svg
   width="22"
   height="40"
   viewPort="0 0 22 40"
   version="1.1"
   id="svg5"
   xmlns="http://www.w3.org/2000/svg"
   xmlns:svg="http://www.w3.org/2000/svg">
  <defs
     id="defs2" />
  <g
     id="layer1">
    <path
       id="path972" style="fill:#302e2e" d="M 11 5.6875 A 3.4192502 3.4192502 0 0 0 7.5800781 9.1074219 A 3.4192502 3.4192502 0 0 0 11 12.525391 A 3.4192502 3.4192502 0 0 0 14.419922 9.1074219 A 3.4192502 3.4192502 0 0 0 11 5.6875 z M 11 25.458984 A 5.6536117 5.6536117 0 0 0 5.3457031 31.111328 A 5.6536117 5.6536117 0 0 0 11 36.765625 A 5.6536117 5.6536117 0 0 0 16.654297 31.111328 A 5.6536117 5.6536117 0 0 0 11 25.458984 z " />
    <path
       id="circle1054" style="fill:#ffffff" d="M 14.41925,31.111792 A 3.4192502,3.4192502 0 0 1 11,34.531042 3.4192502,3.4192502 0 0 1 7.5807498,31.111792 3.4192502,3.4192502 0 0 1 11,27.692541 a 3.4192502,3.4192502 0 0 1 3.41925,3.419251 z" />
  </g>
</svg>
