<?xml version="1.0" encoding="UTF-8" standalone="no"?>
<svg
   width="296"
   height="50"
   viewPort="0 0 296 50"
   version="1.1"
   id="svg5"
   xmlns="http://www.w3.org/2000/svg"
   xmlns:svg="http://www.w3.org/2000/svg">
  <defs
     id="defs2" />
  <path
     id="path3634"
     style="fill:#ff5416;fill-opacity:1"
     d="m 3.0488281,4.0664062 c -0.4921655,10e-8 -0.7382812,0.217285 -0.7382812,0.6503907 0,2.283648 0.098056,5.7177061 0.2949219,10.3046871 0.2165528,4.567296 0.3261718,7.993696 0.3261718,10.277344 0,2.165529 -0.109619,5.422695 -0.3261718,9.773438 -0.1968663,4.331056 -0.2949219,7.580565 -0.2949219,9.746093 0,0.452792 0.2461157,0.677735 0.7382812,0.677735 0.9252712,0 2.3135202,-0.03844 4.1640625,-0.117188 1.8702292,-0.07875 3.2680884,-0.11914 4.1933594,-0.11914 1.259944,0 3.150035,0.03078 5.669922,0.08984 2.539574,0.05906 4.439275,0.08789 5.699219,0.08789 3.366412,0 6.140957,-1.290193 8.326171,-3.869141 2.067096,-2.460827 3.101563,-5.402653 3.101563,-8.828125 0,-1.732422 -0.45379,-3.395618 -1.359375,-4.990234 -0.905584,-1.614303 -2.105379,-2.835271 -3.601562,-3.662109 -0.570913,-0.314986 -0.857422,-0.532272 -0.857422,-0.650391 0,-0.11812 0.286509,-0.364235 0.857422,-0.738281 1.122137,-0.748092 2.077769,-1.849831 2.865234,-3.306641 0.787465,-1.476497 1.179687,-2.893576 1.179687,-4.251953 0,-3.937324 -1.495915,-6.8426617 -4.488281,-8.7128906 C 26.338,4.8921779 23.04044,4.125 18.90625,4.125 17.134454,4.125 14.486795,4.11539 10.962891,4.095703 7.4389852,4.0760165 4.8009374,4.0664062 3.0488281,4.0664062 Z M 85.904297,7.4628906 c -0.551225,0 -0.826172,0.7171736 -0.826172,2.1542969 0,0.8071515 0.01922,2.0185095 0.05859,3.6328125 0.05906,1.614303 0.08789,2.816051 0.08789,3.603516 0,0.767778 -0.451837,1.171564 -1.357421,1.210937 -0.47248,0.01969 -0.955101,0.0293 -1.447266,0.0293 -0.570912,0.09843 -0.886253,0.38299 -0.945313,0.855469 -0.07875,0.629972 -0.117187,1.229869 -0.117187,1.800781 0,1.51587 0.205722,2.323442 0.61914,2.421875 0.708719,0.01969 1.427846,0.0293 2.15625,0.0293 0.807152,0.05906 1.210938,0.49363 1.210938,1.300781 0,1.673363 -0.0404,4.192182 -0.119141,7.558594 -0.07875,3.346726 -0.117187,5.857887 -0.117187,7.53125 0,4.173563 2.303487,6.259765 6.910156,6.259765 3.464845,10e-7 6.002886,-0.384565 7.617188,-1.152343 0.2953,-0.137807 0.483758,-0.276257 0.562508,-0.414063 0.0394,-0.07875 0.0682,-0.294078 0.0879,-0.648437 0.0197,-0.275613 0.0793,-0.875511 0.17773,-1.800781 0.0787,-0.748093 0.11719,-1.340333 0.11719,-1.773438 0,-0.354359 -0.11728,-0.53125 -0.35352,-0.53125 -0.570915,0 -1.447712,0.13845 -2.628908,0.414062 -1.181197,0.255926 -2.077214,0.382813 -2.6875,0.382813 -1.476496,0 -2.449396,-0.511452 -2.921875,-1.535156 C 91.673295,38.123623 91.515625,36.943049 91.515625,35.25 v -4.400391 c 0,-2.519887 0.04805,-4.479203 0.146484,-5.876953 0.07875,-1.122137 0.197976,-1.68164 0.355469,-1.68164 0.787465,0 1.97765,0.05766 3.572266,0.175781 1.594619,0.09843 2.786758,0.148437 3.574218,0.148437 0.551227,0 0.826172,-0.186501 0.826172,-0.560546 0,-0.2953 -0.0096,-0.74909 -0.0293,-1.359376 -0.01967,-0.610285 -0.0293,-1.062122 -0.0293,-1.357421 0,-0.255926 0.02882,-0.640492 0.08789,-1.152344 0.0787,-0.531539 0.11914,-0.916105 0.11914,-1.152344 0,-0.236239 -0.169227,-0.353516 -0.5039,-0.353515 h -7.085938 c -0.531539,0 -0.796875,-0.284557 -0.796875,-0.855469 0,-0.866212 0.05766,-2.166015 0.175781,-3.898438 0.137806,-1.732422 0.207032,-3.0322261 0.207032,-3.8984372 0,-0.3740457 -0.226896,-0.5913307 -0.679688,-0.6503907 C 87.931173,7.7666679 86.081476,7.4628906 85.904297,7.4628906 Z m -71.072266,1.859375 c 3.405786,0 5.85538,0.2865096 7.351563,0.8574224 2.480514,0.964643 3.720703,2.833561 3.720703,5.609374 0,3.484532 -3.15911,5.226563 -9.478516,5.226563 -4.449176,0 -6.6738279,-0.284557 -6.6738279,-0.855469 0,-0.472478 -0.00961,-1.181995 -0.029297,-2.126953 -0.019687,-0.944957 -0.029297,-1.64291 -0.029297,-2.095703 0,-0.669345 0.028831,-1.653808 0.087891,-2.953125 0.05906,-1.299317 0.089844,-2.274169 0.089844,-2.923828 0,-0.4921657 1.6535849,-0.7382814 4.9609369,-0.7382814 z M 51.300781,15.9375 c -3.976697,0 -7.333872,1.56514 -10.070312,4.695312 -2.598634,3.012054 -3.896485,6.54612 -3.896485,10.601563 0,4.547609 1.357465,8.189341 4.074219,10.925781 2.716753,2.716754 6.358485,4.074219 10.925781,4.074219 4.527923,0 8.23888,-1.534356 11.132813,-4.605469 0.314986,-0.334672 0.472656,-0.561568 0.472656,-0.679687 0,-0.09843 -0.344172,-0.80795 -1.033203,-2.126953 -0.689032,-1.33869 -1.063987,-2.027033 -1.123047,-2.066407 -0.03937,-0.03937 -0.137429,-0.05859 -0.294922,-0.05859 l -0.945312,0.767578 c -2.598634,2.008035 -5.452014,3.011718 -8.5625,3.011718 -1.81117,0 -3.505149,-0.580676 -5.080078,-1.742187 -1.653676,-1.220571 -2.607356,-2.697265 -2.863282,-4.429687 11.339494,-0.846525 17.432773,-1.427202 18.279297,-1.742188 1.259944,-0.492165 1.888672,-1.467018 1.888672,-2.923828 0,-3.779831 -1.209405,-6.988947 -3.630859,-9.626953 C 58.093705,17.294965 55.001866,15.9375 51.300781,15.9375 Z m 24.871094,0.414062 c -3.071113,0 -5.611105,0.738348 -7.619141,2.214844 -2.224588,1.653676 -3.33789,3.95521 -3.33789,6.908203 0,2.263962 0.817182,4.096391 2.451172,5.494141 0.393732,0.334673 1.920431,1.23069 4.578125,2.6875 1.633989,0.905585 2.451171,1.899658 2.451171,2.982422 10e-7,2.283648 -1.861259,3.423828 -5.582031,3.423828 0.01969,0 -0.27448,-0.02883 -0.884765,-0.08789 -0.472479,-0.05906 -0.837824,-0.05906 -1.09375,0 -0.354359,0.07875 -0.53125,0.246027 -0.53125,0.501953 0,0.413419 0.05,1.053711 0.148437,1.919922 0.11812,0.866212 0.175781,1.516113 0.175781,1.949219 0,0.807151 0.167281,1.289773 0.501954,1.447266 0.157492,0.05906 0.826615,0.08789 2.007812,0.08789 3.051426,0 5.641423,-0.807572 7.767578,-2.421875 2.342708,-1.771796 3.513672,-4.123334 3.513672,-7.05664 0,-2.401768 -0.807572,-4.370694 -2.421875,-5.90625 -0.629971,-0.590599 -2.125887,-1.546231 -4.488281,-2.865235 -1.594617,-0.905584 -2.392578,-1.801602 -2.392578,-2.6875 0,-1.240257 0.75952,-2.06705 2.27539,-2.480468 1.279631,-0.157494 2.548651,-0.324774 3.808594,-0.501953 0.374046,-0.05906 0.560547,-0.195557 0.560547,-0.41211 0,-0.275613 -0.186501,-1.083185 -0.560547,-2.421875 -0.354359,-1.338691 -0.600475,-2.136652 -0.738281,-2.392578 -0.11812,-0.255926 -0.314231,-0.382813 -0.589844,-0.382814 z m -25.285156,5.25586 c 1.614302,0 3.062166,0.628728 4.341797,1.888672 1.299316,1.259944 1.949218,2.707807 1.949218,4.341797 0,0.23624 -0.571066,0.432351 -1.71289,0.589843 -4.055444,0.590599 -7.539505,0.886719 -10.453125,0.886719 -0.708718,0 -1.064453,-0.207674 -1.064453,-0.621094 0,-1.811168 0.699906,-3.44358 2.097656,-4.90039 1.417437,-1.45681 3.030627,-2.185547 4.841797,-2.185547 z m -33.751953,5.138672 c 2.874246,0 4.991232,0.274946 6.349609,0.826172 2.145842,0.846524 3.21875,2.471279 3.21875,4.873046 0,2.834874 -0.896017,4.782626 -2.6875,5.845704 -1.358377,0.807151 -3.592639,1.210937 -6.703125,1.210937 -2.480515,0 -4.351385,-0.04805 -5.611328,-0.146484 -1.259944,-0.09843 -1.8906251,-0.246493 -1.8906251,-0.44336 0,-0.728404 -0.01922,-1.820533 -0.058594,-3.277343 -0.039373,-1.45681 -0.058594,-2.541282 -0.058594,-3.25 v -4.841797 c 0,-0.531539 2.4803781,-0.796875 7.4414071,-0.796875 z" />
  <path
     id="path3642"
     style="fill:#78c416;fill-opacity:1"
     d="m 251.43555,3.6816406 c -0.70872,0 -1.78163,0.069225 -3.21875,0.2070313 -1.43712,0.1181197 -2.51964,0.1777343 -3.24805,0.1777343 -0.31499,10e-8 -0.47266,0.2365056 -0.47266,0.7089844 0,0.6693452 0.0288,1.6634183 0.0879,2.9824219 0.0591,1.3190035 0.0899,2.3034665 0.0899,2.9531255 v 9.566406 c 0,0.216552 -0.0788,0.355002 -0.23633,0.414062 -0.82683,-0.748091 -1.66324,-1.486438 -2.50977,-2.214844 -1.85054,-1.45681 -4.01752,-2.185546 -6.49804,-2.185546 -4.1145,0 -7.45051,1.495914 -10.00977,4.488281 -2.44114,2.85456 -3.66211,6.379016 -3.66211,10.572265 0,4.035758 1.21136,7.481378 3.63281,10.335938 2.55926,3.031739 5.828,4.546875 9.80469,4.546875 3.50422,0 6.60372,-1.455521 9.30078,-4.369141 0.17718,-0.196866 0.32524,-0.325705 0.44336,-0.384765 0.0984,0.01969 0.16763,0.719592 0.20703,2.097656 0.0591,1.358377 0.22634,2.037109 0.50196,2.037109 0.2953,0 0.72791,-0.03078 1.29883,-0.08984 0.57091,-0.05906 1.00353,-0.08789 1.29882,-0.08789 -0.0591,0 0.32551,0.02883 1.15235,0.08789 0.68903,0.03937 1.2197,0.03937 1.59375,0 0.5512,-0.05906 0.81849,-0.185947 0.79883,-0.382813 l -0.0312,-0.384766 c -0.33468,-3.996384 -0.50196,-9.881987 -0.50196,-17.658203 0,-2.519887 0.10962,-6.309679 0.32617,-11.36914 0.23624,-5.079149 0.35352,-8.8881606 0.35352,-11.4277346 0,-0.413419 -0.16728,-0.6210938 -0.50195,-0.6210938 z m -120.74024,0.085937 c -0.0834,-0.00461 -0.17211,-0.00348 -0.26562,0.00391 -5.51226,0.354359 -10.05,0.5504704 -13.61328,0.5898437 -2.63801,0.039373 -5.501,0.029763 -8.5918,-0.029297 -2.34271,-0.05906 -3.59446,-0.087891 -3.75195,-0.087891 -0.51184,0.05906 -0.75795,0.2955654 -0.73828,0.7089844 v 0.3828125 c 0.41342,11.1623148 0.62109,17.7574348 0.62109,19.7851568 0,2.185214 -0.0981,5.473164 -0.29492,9.863281 -0.17718,4.390116 -0.26563,7.678066 -0.26563,9.863281 0,0.433106 0.24612,0.648438 0.73828,0.648438 0.33468,0 0.84613,-0.02883 1.53516,-0.08789 0.68903,-0.05906 1.20048,-0.08789 1.53516,-0.08789 0.41342,0 1.0037,0.04805 1.77148,0.146485 0.78747,0.07875 1.37776,0.11914 1.77148,0.119141 0.47248,0 0.70899,-0.296121 0.70899,-0.886719 0,-1.771796 -0.0481,-4.429065 -0.14649,-7.972657 -0.0984,-3.543591 -0.14843,-6.20086 -0.14843,-7.972656 0,-0.629972 0.44222,-0.995317 1.32812,-1.09375 0.33468,-0.03937 1.77293,-0.05859 4.3125,-0.05859 1.37807,0 3.44505,0.04039 6.20117,0.119141 2.77582,0.07875 4.8428,0.117188 6.20118,0.117188 0.41342,0 0.61914,-0.117277 0.61914,-0.353516 0,-0.354359 -0.0192,-0.886985 -0.0586,-1.595703 -0.0394,-0.728405 -0.0586,-1.268688 -0.0586,-1.623047 0,-0.334673 0.0192,-0.826904 0.0586,-1.476563 0.0591,-0.669345 0.0898,-1.171187 0.0898,-1.505859 0,-0.314986 -0.20768,-0.472656 -0.6211,-0.472656 -1.9096,0 -4.79376,0.08845 -8.65234,0.265625 -3.83889,0.17718 -6.71344,0.265625 -8.62305,0.265625 -0.57091,0 -0.85547,-0.669122 -0.85547,-2.007813 v -7.117187 c 0,-1.082764 0.19611,-1.703835 0.58985,-1.861328 0.0787,-0.03937 0.80748,-0.0682 2.18554,-0.08789 l 2.15625,-0.0293 c 1.7718,-0.03937 4.29062,0.02024 7.5586,0.177735 3.50422,0.177179 6.02498,0.265625 7.56054,0.265625 0.41342,0 0.61915,-0.188455 0.61915,-0.5625 0,-0.4527929 -0.11728,-1.4372559 -0.35352,-2.9531257 -0.0984,-1.0827641 -0.13881,-1.8883831 -0.11914,-2.4199218 -0.0861,-0.6201287 -0.42038,-0.9462174 -1.00391,-0.9785157 z m 26.82227,2.7207031 c -1.10246,1e-7 -2.04847,0.3345612 -2.83594,1.0039063 -0.84652,0.7087183 -1.26953,1.6047356 -1.26953,2.687501 0,2.421454 1.36903,3.630859 4.10547,3.630859 2.69706,0 4.04492,-1.209405 4.04492,-3.630859 0,-1.0827654 -0.40378,-1.9691724 -1.21094,-2.6582041 -0.78746,-0.6890318 -1.73154,-1.0332031 -2.83398,-1.0332032 z M 177.68359,15.9375 c -3.9767,0 -7.33387,1.56514 -10.07031,4.695312 -2.59863,3.012054 -3.89844,6.54612 -3.89844,10.601563 0,4.547609 1.35942,8.189341 4.07618,10.925781 2.71675,2.716754 6.35848,4.074219 10.92578,4.074219 4.52792,0 8.23888,-1.534356 11.13281,-4.605469 0.31499,-0.334672 0.47266,-0.561568 0.47266,-0.679687 0,-0.09843 -0.34417,-0.80795 -1.03321,-2.126953 -0.68902,-1.33869 -1.06398,-2.027033 -1.12304,-2.066407 -0.0394,-0.03937 -0.13743,-0.05859 -0.29493,-0.05859 l -0.94531,0.767578 c -2.59863,2.008035 -5.45397,3.011718 -8.56445,3.011718 -1.81117,0 -3.5032,-0.580676 -5.07813,-1.742187 -1.65368,-1.220571 -2.6093,-2.697265 -2.86523,-4.429687 11.33949,-0.846525 17.43277,-1.427202 18.2793,-1.742188 1.25994,-0.492165 1.89062,-1.467018 1.89062,-2.923828 0,-3.779831 -1.21135,-6.988947 -3.63281,-9.626953 -2.48052,-2.716754 -5.57041,-4.074219 -9.27149,-4.074219 z m 86.78321,0.414062 c -3.07112,0 -5.61111,0.738348 -7.61914,2.214844 -2.22459,1.653676 -3.33594,3.95521 -3.33594,6.908203 0,2.263962 0.81718,4.096391 2.45117,5.494141 0.39373,0.334673 1.91848,1.23069 4.57617,2.6875 1.634,0.905585 2.45117,1.899658 2.45117,2.982422 0,2.283648 -1.86125,3.423828 -5.58203,3.423828 0.0197,0 -0.27448,-0.02883 -0.88476,-0.08789 -0.47248,-0.05906 -0.83783,-0.05906 -1.09375,0 -0.35436,0.07875 -0.53125,0.246027 -0.53125,0.501953 0,0.413419 0.05,1.053711 0.14844,1.919922 0.11811,0.866212 0.17773,1.516113 0.17773,1.949219 0,0.807151 0.16728,1.289773 0.50195,1.447266 0.1575,0.05906 0.82662,0.08789 2.00782,0.08789 3.05142,0 5.63947,-0.807572 7.76562,-2.421875 2.34271,-1.771796 3.51367,-4.123334 3.51367,-7.05664 0,-2.401768 -0.80562,-4.370694 -2.41992,-5.90625 -0.62997,-0.590599 -2.12784,-1.546231 -4.49023,-2.865235 -1.59462,-0.905584 -2.39063,-1.801602 -2.39063,-2.6875 0,-1.240257 0.75756,-2.06705 2.27344,-2.480468 1.27962,-0.157494 2.54865,-0.324774 3.80859,-0.501953 0.37405,-0.05906 0.5625,-0.195557 0.5625,-0.41211 0,-0.275613 -0.18845,-1.083185 -0.5625,-2.421875 -0.35436,-1.338691 -0.60047,-2.136652 -0.73828,-2.392578 -0.11812,-0.255926 -0.31423,-0.382813 -0.58984,-0.382814 z m -54.29492,0.236329 c -1.9293,0 -3.92705,0.628728 -5.99415,1.888671 -1.67336,1.200884 -3.02121,2.204568 -4.04492,3.011719 -0.35436,-1.240256 -0.58125,-2.470835 -0.67969,-3.691406 -0.0394,-0.314986 -0.1182,-0.470703 -0.23632,-0.470703 -0.0984,0 -1.21174,0.176891 -3.33789,0.53125 -2.10647,0.334672 -3.22743,0.511563 -3.36524,0.53125 -0.25592,0.07875 -0.38476,0.215243 -0.38476,0.412109 0,0.07875 0.0308,0.207586 0.0898,0.384766 0.88589,3.543591 1.32813,7.412219 1.32813,11.605469 0,1.57493 -0.0288,3.916857 -0.0879,7.027343 -0.0394,3.110486 -0.0605,5.444757 -0.0605,7 0,0.452792 0.20768,0.677735 0.62109,0.677735 0.62997,0 1.57404,0.0096 2.83399,0.0293 1.25994,0.01969 2.20596,0.03125 2.83593,0.03125 0.37405,0 0.56055,-0.246116 0.56055,-0.738282 v -17.71875 c 0,-0.905584 0.92485,-1.940051 2.77539,-3.101562 1.75211,-1.102451 3.12114,-1.652344 4.10547,-1.652344 2.12616,0 3.58168,0.549893 4.36914,1.652344 0.64966,0.925271 0.97461,2.511585 0.97461,4.755859 0,0.787465 0.0116,1.968039 0.0312,3.542969 0.0197,1.555243 0.0293,2.726207 0.0293,3.513672 0,0.984331 -0.0308,2.461025 -0.0898,4.429687 -0.0591,1.968662 -0.0879,3.435746 -0.0879,4.400391 0,0.570912 0.17689,0.855469 0.53125,0.855469 0.64966,0 1.61491,0.0096 2.89453,0.0293 1.29932,0.01969 2.27417,0.03125 2.92383,0.03125 0.39373,0 0.58985,-0.217285 0.58985,-0.650391 0,-1.319003 -0.0192,-3.287929 -0.0586,-5.90625 -0.0394,-2.618321 -0.0586,-4.587247 -0.0586,-5.90625 0,-0.629972 0.01,-1.574041 0.0293,-2.833984 0.0394,-1.259944 0.0586,-2.196356 0.0586,-2.806641 0,-3.523905 -0.50185,-6.071554 -1.50586,-7.646484 -1.35838,-2.145842 -3.88877,-3.21875 -7.58984,-3.21875 z m -70.97657,0.208984 c 0.0138,0.02307 -0.97548,0.218766 -2.96875,0.587891 -1.319,0.157492 -2.34386,0.274769 -3.07226,0.353515 -0.25593,0.09843 -0.38282,0.265714 -0.38282,0.501953 0,0.07875 0.0192,0.197976 0.0586,0.355469 0.90558,2.952993 1.35937,6.860061 1.35937,11.722656 0,1.614303 -0.0308,4.025456 -0.0898,7.234375 -0.0394,3.208919 -0.0586,5.610462 -0.0586,7.205078 0,0.492166 0.22689,0.738282 0.67968,0.738282 0.61029,0 1.53514,0.0096 2.77539,0.0293 1.24026,0.01969 2.16511,0.03125 2.77539,0.03125 0.45279,0 0.67969,-0.26729 0.67969,-0.798829 0,-1.10245 -0.05,-2.775256 -0.14844,-5.019531 -0.0787,-2.244275 -0.11718,-3.91708 -0.11718,-5.019531 v -3.248047 c 0,-2.677381 0.20572,-4.440585 0.61914,-5.287109 0.68903,-1.39775 2.27339,-2.095703 4.7539,-2.095703 0.43311,0 1.06379,0.04805 1.89063,0.146484 0.84653,0.07875 1.47721,0.119141 1.89062,0.119141 0.33467,0 0.53078,-0.226896 0.58985,-0.679688 0.2953,-1.771796 0.44336,-3.740722 0.44336,-5.90625 0,-0.413419 -0.76718,-0.61914 -2.30274,-0.61914 -1.20088,-10e-7 -2.18534,0.117276 -2.95312,0.353515 -0.92527,0.255927 -1.8309,0.650102 -2.7168,1.181641 -0.80715,0.511852 -1.61473,1.023304 -2.42187,1.535156 -0.059,0.03937 -0.10904,0.05859 -0.14844,0.05859 -0.25593,0 -0.43282,-0.580677 -0.53125,-1.742188 -0.0967,-1.141445 -0.29765,-1.718562 -0.60352,-1.738281 z m 15.01563,0.824219 c -0.41342,0 -0.6211,0.16728 -0.6211,0.501953 0,1.535557 0.10768,3.839043 0.32422,6.910156 0.23624,3.071113 0.35547,5.3746 0.35547,6.910156 0,1.378064 -0.0404,3.435435 -0.11914,6.171875 -0.0591,2.716754 -0.0879,4.752952 -0.0879,6.111328 0,0.807152 0.20572,1.210938 0.61914,1.210938 h 5.75977 c 0.35436,0 0.53125,-0.205722 0.53125,-0.619141 0,-1.417436 -0.0308,-3.553643 -0.0898,-6.408203 -0.0591,-2.874246 -0.0879,-5.029673 -0.0879,-6.466797 0,-1.535556 0.0885,-3.829433 0.26563,-6.880859 0.19686,-3.071113 0.29492,-5.364989 0.29492,-6.880859 0,-0.374046 -0.16728,-0.560547 -0.50195,-0.560547 -0.37405,0 -0.93355,0.04805 -1.68164,0.146484 -0.7284,0.09843 -1.28026,0.148438 -1.6543,0.148438 -0.37405,0 -0.9355,-0.05 -1.6836,-0.148438 -0.7284,-0.09843 -1.26868,-0.146484 -1.62304,-0.146484 z m 23.05859,3.986328 c 1.6143,0 3.06216,0.628728 4.3418,1.888672 1.29931,1.259944 1.94726,2.707807 1.94726,4.341797 0,0.23624 -0.56911,0.432351 -1.71093,0.589843 -4.05545,0.590599 -7.54146,0.886719 -10.45508,0.886719 -0.70872,0 -1.0625,-0.207674 -1.0625,-0.621094 0,-1.811168 0.6999,-3.44358 2.09765,-4.90039 1.41744,-1.45681 3.03063,-2.185547 4.8418,-2.185547 z m 59.3125,0.472656 c 2.30333,0 4.23382,0.953679 5.78906,2.863281 1.45681,1.791483 2.1836,3.868074 2.1836,6.230469 0,2.421454 -0.70757,4.50961 -2.125,6.261719 -1.53556,1.870229 -3.48527,2.804687 -5.84766,2.804687 -2.34271,0 -4.31164,-0.924848 -5.90625,-2.77539 -1.55525,-1.75211 -2.33203,-3.809481 -2.33203,-6.171875 0,-2.480514 0.74795,-4.60711 2.24414,-6.378907 1.57493,-1.889915 3.57269,-2.833984 5.99414,-2.833984 z m 51.92383,2.226563 c -0.21497,0 -0.32227,0.103853 -0.32227,0.308593 0,1.09536 0.0519,2.753179 0.1543,4.97461 0.11261,2.211194 0.16797,3.869012 0.16797,4.974609 0,1.218205 -0.0107,3.046015 -0.0312,5.482422 -0.0205,2.426172 -0.0293,4.243205 -0.0293,5.451172 0,0.235451 0.0911,0.353516 0.27539,0.353515 h 2.9336 c 0.16378,0 0.24609,-0.118064 0.24609,-0.353515 0,-1.207967 -0.0216,-3.025 -0.0625,-5.451172 -0.0409,-2.436407 -0.0606,-4.264217 -0.0606,-5.482422 0,-2.733281 0.11269,-6.004333 0.33789,-9.8125 l 0.0156,-0.199219 c 0.0102,-0.163792 -0.0774,-0.246093 -0.26172,-0.246093 -0.18427,0 -0.46498,0.01616 -0.84375,0.04687 -0.37877,0.03071 -0.66682,0.04687 -0.86133,0.04687 -0.18426,0 -0.45958,-0.01616 -0.82812,-0.04687 -0.36854,-0.03071 -0.64582,-0.04687 -0.83008,-0.04687 z m -5.56055,6.205078 c -2.13953,0 -3.92619,0.777958 -5.35937,2.333984 -1.39224,1.515077 -2.08789,3.357099 -2.08789,5.527344 0,2.129298 0.71182,3.962495 2.13476,5.498047 1.45366,1.576498 3.23493,2.363281 5.34375,2.363281 0.48114,0 1.22334,-0.126888 2.22656,-0.382813 1.19774,-0.30711 1.79688,-0.620152 1.79688,-0.9375 0,-0.296873 -0.0769,-0.833316 -0.23047,-1.611328 -0.16379,-0.859909 -0.31223,-1.291015 -0.44531,-1.291015 0.0819,0 -0.20959,0.16999 -0.875,0.507812 -0.66541,0.337821 -1.34147,0.50586 -2.02734,0.50586 -1.23867,0 -2.28853,-0.470305 -3.14844,-1.41211 -0.83944,-0.911093 -1.25782,-1.991319 -1.25782,-3.240234 0,-1.269389 0.41838,-2.369214 1.25782,-3.300781 0.83943,-0.931569 1.88929,-1.398438 3.14844,-1.398438 0.5528,0 1.05886,0.101899 1.51953,0.306641 0.4709,0.204739 0.93777,0.410494 1.39843,0.615234 0.0921,0 0.25478,-0.389957 0.49024,-1.167969 0.23545,-0.778012 0.35351,-1.278691 0.35351,-1.503906 0,-0.09213 -0.1019,-0.199422 -0.30664,-0.322266 -1.18749,-0.726827 -2.49845,-1.089843 -3.93164,-1.089843 z M 272.52734,41.28125 c -0.64278,0 -1.17829,0.236264 -1.60351,0.710938 -0.42524,0.464784 -0.63672,1.02884 -0.63672,1.691406 0,0.652676 0.20771,1.216733 0.62305,1.691406 0.43512,0.504341 0.9744,0.755859 1.61718,0.755859 0.64279,0 1.18206,-0.241999 1.61719,-0.726562 0.445,-0.494451 0.66602,-1.068027 0.66602,-1.720703 0,-0.652676 -0.21723,-1.216733 -0.65235,-1.691406 -0.43512,-0.474674 -0.97818,-0.710938 -1.63086,-0.710938 z" />
</svg>
