<?xml version="1.0" encoding="UTF-8" standalone="no"?>
<svg
   width="64"
   height="32"
   viewPort="0 0 64 32"
   version="1.1"
   id="svg5"
   xmlns="http://www.w3.org/2000/svg"
   xmlns:svg="http://www.w3.org/2000/svg">
  <defs
     id="defs2" />
  <g
     id="layer1">
    <path
       id="rect1898"
       style="fill:#ff1616;fill-opacity:1"
       d="M 9.4199219 0 C 5.3090709 0 2 3.3090707 2 7.4199219 L 2 20.580078 C 2 24.690929 5.3090709 28 9.4199219 28 L 22.580078 28 C 26.690929 28 30 24.690929 30 20.580078 L 30 7.4199219 C 30 3.3090707 26.690929 -9.7890043e-07 22.580078 0 L 9.4199219 0 z M 47.996094 0 C 40.346121 0 34.120247 6.2230369 34.117188 13.873047 C 34.116191 16.318395 34.754259 18.706536 35.96875 20.810547 L 34 28 L 41.357422 26.070312 C 43.384555 27.175618 45.667343 27.758785 47.990234 27.759766 L 47.996094 27.759766 C 55.645273 27.759766 61.871901 21.534817 61.875 13.884766 C 61.8763 10.177459 60.432918 6.6908934 57.8125 4.0683594 C 55.192161 1.4458264 51.708807 0.001474 47.996094 0 z M 48 2.34375 C 51.081146 2.34485 53.978271 3.5448524 56.15625 5.7246094 C 58.334232 7.9043664 59.532421 10.803395 59.53125 13.884766 C 59.52855 20.243604 54.354245 25.416016 47.996094 25.416016 L 47.990234 25.416016 C 45.920313 25.415388 43.890246 24.859313 42.119141 23.808594 L 41.699219 23.558594 L 37.332031 24.703125 L 38.498047 20.447266 L 38.222656 20.011719 C 37.067917 18.175596 36.458076 16.053923 36.458984 13.875 C 36.461584 7.516621 41.636934 2.34375 48 2.34375 z M 9.4199219 3.0546875 L 22.580078 3.0546875 C 25.051191 3.0546875 26.945312 4.9488086 26.945312 7.4199219 L 26.945312 20.580078 C 26.945312 23.05119 25.051191 24.945313 22.580078 24.945312 L 9.4199219 24.945312 C 6.9488095 24.945312 5.0546875 23.05119 5.0546875 20.580078 L 5.0546875 7.4199219 C 5.0546875 4.9488086 6.9488095 3.0546875 9.4199219 3.0546875 z M 23.351562 4.8789062 A 1.8137008 1.8137008 0 0 0 21.537109 6.6933594 A 1.8137008 1.8137008 0 0 0 23.351562 8.5078125 A 1.8137008 1.8137008 0 0 0 25.164062 6.6933594 A 1.8137008 1.8137008 0 0 0 23.351562 4.8789062 z M 15.976562 6.8867188 A 7.1823768 7.1823768 0 0 0 8.7949219 14.070312 A 7.1823768 7.1823768 0 0 0 15.976562 21.25 A 7.1823768 7.1823768 0 0 0 23.158203 14.070312 A 7.1823768 7.1823768 0 0 0 15.976562 6.8867188 z M 43.082031 7.4667969 C 42.850835 7.4667969 42.474148 7.5533516 42.15625 7.9003906 C 41.838385 8.2474696 40.943359 9.0866047 40.943359 10.792969 C 40.943359 12.499335 42.185969 14.14752 42.359375 14.378906 C 42.532745 14.610287 44.804407 18.11162 48.283203 19.613281 C 49.11059 19.970456 49.75614 20.183865 50.259766 20.34375 C 51.090555 20.607528 51.847758 20.569699 52.445312 20.480469 C 53.111576 20.380939 54.496131 19.641839 54.785156 18.832031 C 55.074142 18.02222 55.074983 17.328199 54.988281 17.183594 C 54.901611 17.038986 54.670993 16.952854 54.324219 16.779297 C 53.977401 16.605773 52.271024 15.766085 51.953125 15.650391 C 51.635263 15.5347 51.40506 15.477143 51.173828 15.824219 C 50.942669 16.171258 50.276578 16.952244 50.074219 17.183594 C 49.871974 17.414981 49.671034 17.445047 49.324219 17.271484 C 48.977441 17.097967 47.859782 16.731901 46.535156 15.550781 C 45.504276 14.631592 44.807749 13.495475 44.605469 13.148438 C 44.403182 12.801355 44.584214 12.614206 44.757812 12.441406 C 44.913795 12.286062 45.103937 12.036455 45.277344 11.833984 C 45.450713 11.631552 45.509422 11.487212 45.625 11.255859 C 45.740617 11.024475 45.682403 10.82196 45.595703 10.648438 C 45.508993 10.47492 44.816369 8.7683397 44.527344 8.0742188 C 44.245879 7.3982047 43.958957 7.4890976 43.746094 7.4785156 C 43.544035 7.4684756 43.31319 7.4667969 43.082031 7.4667969 z M 15.976562 9.484375 A 4.5830407 4.5830407 0 0 1 20.558594 14.070312 A 4.5830407 4.5830407 0 0 1 15.976562 18.652344 A 4.5830407 4.5830407 0 0 1 11.392578 14.070312 A 4.5830407 4.5830407 0 0 1 15.976562 9.484375 z " />
  </g>
</svg>
