<?xml version="1.0" encoding="UTF-8" standalone="no"?>
<svg
   width="22"
   height="22"
   viewPort="0 0 22 22"
   version="1.1"
   id="svg1193"
   xmlns="http://www.w3.org/2000/svg"
   xmlns:svg="http://www.w3.org/2000/svg">
  <defs
     id="defs1190" />
  <g
     id="layer1">
    <path
       id="path1310"
       style="fill:#302e2e;fill-opacity:1"
       d="M 8.0117188 0 A 8.0124388 8.0124388 0 0 0 0 8.0117188 A 8.0124388 8.0124388 0 0 0 8.0117188 16.025391 A 8.0124388 8.0124388 0 0 0 16.025391 8.0117188 A 8.0124388 8.0124388 0 0 0 8.0117188 0 z M 8.0117188 1.3515625 A 6.6614647 6.6614647 0 0 1 14.673828 8.0117188 A 6.6614647 6.6614647 0 0 1 8.0117188 14.673828 A 6.6614647 6.6614647 0 0 1 1.3515625 8.0117188 A 6.6614647 6.6614647 0 0 1 8.0117188 1.3515625 z M 14.552734 13.894531 A 0.68131018 0.68131018 0 0 0 13.871094 14.576172 A 0.68131018 0.68131018 0 0 0 14.552734 15.255859 A 0.68131018 0.68131018 0 0 0 15.232422 14.576172 A 0.68131018 0.68131018 0 0 0 14.552734 13.894531 z M 16.199219 15.095703 C 15.923512 15.095703 15.646808 15.200848 15.435547 15.412109 L 15.412109 15.435547 C 14.989588 15.858068 14.989587 16.538417 15.412109 16.960938 L 20.134766 21.683594 C 20.557288 22.106115 21.237634 22.106116 21.660156 21.683594 L 21.683594 21.660156 C 22.106115 21.237634 22.106115 20.557288 21.683594 20.134766 L 16.960938 15.412109 C 16.749676 15.200848 16.474925 15.095703 16.199219 15.095703 z " />
  </g>
</svg>
